#Comment line ignore any data following # character
#Hierarchical Translation and Rotation (.htr) file
[Header]
FileType htr #Single word string
DataType HTRS #Translation followed by rotation and scale data
FileVersion 1 #integer
NumSegments 18 #integer
NumFrames 2 #integer
DataFrameRate 60 #integer, data frame rate in this file
EulerRotationOrder ZYX
CalibrationUnits mm
RotationUnits Degrees
GlobalAxisofGravity Y
BoneLengthAxis Y
ScaleFactor 1.000000
[SegmentNames&Hierarchy]
#CHILD PARENT
Head Neck
Neck Chest
Chest Hips
LeftShoulder LeftCollar
RightShoulder RightCollar
LeftElbow LeftShoulder
RightElbow RightShoulder
LeftWrist LeftElbow
RightWrist RightElbow
Hips GLOBAL
LeftHip Hips
RightHipHips
LeftKneeLeftHip
RightKnee RightHip
LeftAnkle LeftKnee
RightAnkle RightKnee
LeftCollar Chest
RightCollar Chest
[BasePosition]
#SegmentName Tx, Ty, Tz, Rx, Ry, Rz, BoneLength 
Head 0.000003 141.966248 0.000002 -37.745777 -8.179454 6.203664 80.000046
Neck 0.000000 379.566772 0.000000 32.855431 -5.194619 1.823337 141.966263
Chest 0.000000 94.891693 0.000000 0.000002 12.877405 -0.000012 379.566803
LeftShoulder 0.000003 154.023666 0.000005 171.957962 -79.977570 -157.094910 215.219986
RightShoulder -0.000001 146.408707 -0.000001 20.020029 60.865143 -8.207462 240.139038
LeftElbow 0.000007 215.219971 -0.000011 -24.162848 54.442085 -17.491318 336.440125
RightElbow -0.000021 240.139038 0.000007 -21.925606 -43.617706 23.102211 322.101532
LeftWrist -0.000014 336.440094 0.000002 173.178864 -0.531422 156.628021 100.348160
RightWrist 0.000005 322.101501 0.000026 1.868945 1.747480 14.125610 109.739998
Hips 377.886597 1077.530640 704.474976 -179.011169 36.455761 -178.006714 94.891701
LeftHip 95.336761 5.238981 -8.336124 -0.485735 -9.415434 -176.117065 525.916443
RightHip-96.119095 -4.691877 -4.857316 2.457280 -1.423929 -179.125565 528.302429
LeftKnee0.000004 525.916443 0.000001 -10.646533 -14.541370 -1.855900 514.711975
RightKnee -0.000002 528.302429 0.000004 -12.768950 2.118825 -3.063609 521.764099
LeftAnkle 0.000003 514.711975 0.000009 97.965164 -0.000001 0.000000 253.446518
RightAnkle 0.000001 521.764099 -0.000002 99.242271 0.000002 0.000000 256.283173
LeftCollar 19.999998 366.483276 -15.126845 169.660507 -4.312743 90.901894 154.023682
RightCollar -19.999996 366.483215 -15.126822 171.369568 4.171492 -91.645760 146.408707
#Beginning of Data. Separated by tabs
[Head]
#Fr Tx Ty Tz Rx Ry Rz SF
1 -0.000004 11.246399 -0.000001 -8.720660 -3.164685 6.637906 1.000000
2 -0.000005 11.559982 -0.000003 -8.967685 -3.106098 6.445398 0.999999
[Neck]
#Fr Tx Ty Tz Rx Ry Rz SF
1 0.000000 -12.073059 0.000010 0.396232 -0.246686 -4.863737 1.079219
2 -0.000002 -12.097473 -0.000004 0.425361 -0.269309 -4.636292 1.081428
[Chest]
#Fr Tx Ty Tz Rx Ry Rz SF
1 -0.000000 -3.018326 0.000001 -0.000001 -1.628358 0.000009 0.968192
2 -0.000000 -3.024338 -0.000000 -0.000020 -1.705875 0.000017 0.968128
[LeftShoulder]
#Fr Tx Ty Tz Rx Ry Rz SF
1 0.000000 13.815002 -0.000001 83.761948 35.203880 79.582558 1.241342
2 -0.000002 13.839508 -0.000007 83.631897 35.184998 79.323212 1.241620
[RightShoulder]
#Fr Tx Ty Tz Rx Ry Rz SF
1 0.000001 13.459503 0.000006 52.406124 -42.238705 -73.830421 1.125802 
2 0.000001 13.286621 -0.000001 52.394287 -42.320644 -73.863625 1.126161
[LeftElbow]
#Fr Tx Ty Tz Rx Ry Rz SF
1 -0.000013 51.941711 0.000027 -3.925248 -24.090729 4.376663 0.944601
2 -0.000028 52.001495 0.000031 -3.939872 -23.993404 4.348942 0.944359
[RightElbow]
#Fr Tx Ty Tz Rx Ry Rz SF
1 0.000028 30.209961 0.000002 -8.925378 29.599155 -1.955990 0.984899
2 0.000030 30.296173 -0.000008 -8.816924 29.673548 -2.041257 0.984634
[LeftWrist]
#Fr Tx Ty Tz Rx Ry Rz SF
1 0.000003 -18.638397 -0.000015 107.779221 -83.890533 -110.960365 1.050000
2 -0.000024 -18.719818 0.000002 107.994080 -84.038475 -111.112129 1.049792
[RightWrist]
#Fr Tx Ty Tz Rx Ry Rz SF
1 0.000005 -4.863892 -0.000016 -104.610184 82.968636 -99.990471 0.985911
2 -0.000004 -4.949310 -0.000014 -104.448631 83.079323 -99.959129 0.985429
[Hips]
#Fr Tx Ty Tz Rx Ry Rz SF
1 -1112.53588 16.523438 -582.300842 50.390434 -85.266396 -41.504185 0.968192
2 -1112.92895 16.720703 -581.117249 49.189865 -85.150032 -40.316120 0.968128
[LeftHip]
#Fr Tx Ty Tz Rx Ry Rz SF
1 1.874519 -4.514181 2.456207 16.237614 0.050990 3.735080 0.997758
2 1.820427 -4.414242 2.499619 16.227806 0.054104 3.808969 0.998198
[RightHip]
#Fr Tx Ty Tz Rx Ry Rz SF
1 -0.236748 2.359360 -5.008488 15.787422 1.024064 -7.257273 1.010598
2 -0.152199 2.261423 -5.098666 15.545793 1.053510 -7.157682 1.010190
[LeftKnee]
#Fr Tx Ty Tz Rx Ry Rz SF
1 -0.000013 -1.179138 0.000001 -15.567005 -4.739112 5.805853 0.980860
2 0.000004 -0.947693 -0.000002 -15.523184 -4.706165 5.806359 0.980786
[RightKnee]
#Fr Tx Ty Tz Rx Ry Rz SF
1 0.000014 5.598694 0.000004 -15.268150 9.185243 -0.711757 1.005186
2 0.000006 5.383545 0.000011 -14.904158 9.361836 -0.678691 1.004277
[LeftAnkle]
#Fr Tx Ty Tz Rx Ry Rz SF
1 -0.000011 -9.851410 0.000011 2.843235 -0.000000 -0.000001 1.033134
2 0.000017 -9.889526 0.000018 2.784328 0.000000 -0.000001 1.032441
[RightAnkle]
#Fr Tx Ty Tz Rx Ry Rz SF
1 -0.000007 2.706116 -0.000010 4.153965 0.000000 0.000000 0.997164
2 -0.000000 2.231934 0.000010 4.001956 -0.000000 0.000001 0.997414
[LeftCollar]
#Fr Tx Ty Tz Rx Ry Rz SF
1 -0.000010 -11.597260 -0.398872 -1.000729 0.923276 10.489632 1.089694
2 -0.000010 -11.614258 -0.404864 -1.027217 0.956677 10.465802 1.089853
[RightCollar]
#Fr Tx Ty Tz Rx Ry Rz SF
1 0.000006 -11.597107 -0.398855 -3.114126 -1.254626 -11.935379 1.091931
2 -0.000015 -11.614227 -0.404881 -3.163443 -1.282111 -12.004474 1.090750
[EndOfFile]
